<svg xmlns="http://www.w3.org/2000/svg"  viewBox="0 0 48 48" width="240px" height="240px"><path fill="#71c598" d="M29.177,3.603c0,0,0.828,6.334,0.915,10.076c1.75-0.041,15.631-0.098,15.631-0.098l-0.6-7.467	c0,0,0.497-2.642-3.481-2.291S29.177,3.603,29.177,3.603z"/><path fill="#38b47b" d="M29.889,23.841l0.34-10.439h15.531l-0.037,8.967C45.723,22.37,34.017,23.846,29.889,23.841z"/><path fill="#38b47b" d="M12.52,13.239l-0.2-6.992c0,0-0.626-2.707,3.921-3.091s13.647,0.667,13.647,0.667l0.503,9.84	L12.52,13.239z"/><path fill="#2b8c5e" d="M21.13,13.582l8.961,0.098l-0.404,9.929c0,0,10.641-0.049,16.242-1.37	c-0.073,1.736-0.636,11.592-0.636,11.592l-16.01-0.545l-7.24-0.048L21.13,13.582z"/><path fill="#127272" d="M29.283,44.185l-10.468,0.634c0,0-6.237,0.838-6.444-4.756c-0.208-5.595-0.15-6.638-0.15-6.638	l0.299-9.583l17.167-0.069l-0.221,9.467c0,0,11.912-0.41,16.022,0.618c0.147,2.666-0.34,6.714-0.34,6.714s0.289,4.819-5.579,4.188	S29.283,44.185,29.283,44.185z"/><path fill="#2b8c5e" d="M18.354,12.862c-4.266,0.474-8.365-0.28-12.65-0.041c-1.329,0.074-2.836,0.239-3.636,1.316 c-0.61,0.821-0.616,1.933-0.596,2.96c0.04,2.061,0.08,4.721,0.12,6.782c0.054,2.813,0.109,5.627,0.163,8.44 c0.01,0.508,0.036,1.061,0.361,1.448c0.223,0.265,0.553,0.408,0.875,0.529c2.297,0.859,4.79,0.996,7.239,1.023 c3.695,0.04,7.393-0.151,11.064-0.572c0.432-0.049,0.871-0.104,1.266-0.288c0.817-0.38,1.312-1.266,1.472-2.161 c0.16-0.895,0.038-1.814-0.073-2.717c-0.587-4.782-0.845-9.405-0.771-14.224c0.012-0.793-0.009-1.692-0.587-2.228 c-0.44-0.408-1.083-0.482-1.679-0.499C19.995,12.604,19.277,12.759,18.354,12.862z"/><path fill="#010101" d="M18.354,12.362c-3.095,0.328-6.189,0.032-9.286-0.063c-1.469-0.045-2.963-0.07-4.424,0.114	c-1.031,0.13-2.109,0.426-2.82,1.236c-0.834,0.949-0.87,2.252-0.851,3.449c0.022,1.351,0.048,2.703,0.071,4.054	c0.052,3.061,0.114,6.122,0.174,9.182c0.015,0.757,0.006,1.519,0.048,2.275c0.034,0.604,0.159,1.205,0.618,1.635	c0.38,0.357,0.924,0.526,1.409,0.687c0.724,0.241,1.469,0.415,2.221,0.541c3,0.503,6.123,0.402,9.151,0.284	c1.641-0.064,3.281-0.174,4.916-0.329c1.228-0.117,2.79-0.057,3.786-0.899c0.971-0.822,1.27-2.138,1.242-3.358	c-0.035-1.495-0.322-3.001-0.464-4.49c-0.337-3.519-0.492-7.054-0.463-10.589c0.011-1.253,0.162-2.873-1.112-3.6	C21.338,11.789,19.667,12.208,18.354,12.362c-0.631,0.074-0.639,1.075,0,1c1.078-0.127,2.448-0.499,3.506-0.097	c1.211,0.461,0.82,2.434,0.818,3.435c-0.007,2.769,0.099,5.538,0.319,8.299c0.109,1.368,0.245,2.734,0.406,4.097	c0.145,1.229,0.454,2.643-0.072,3.824c-0.6,1.349-1.976,1.331-3.26,1.46c-1.43,0.144-2.863,0.253-4.299,0.327	c-2.754,0.142-5.55,0.224-8.302,0.004c-1.326-0.106-2.647-0.323-3.912-0.743C2.99,33.779,2.43,33.613,2.3,32.956	c-0.134-0.677-0.06-1.439-0.073-2.126c-0.053-2.722-0.109-5.443-0.157-8.165c-0.023-1.274-0.043-2.547-0.065-3.821	c-0.02-1.122-0.174-2.348,0.064-3.454c0.298-1.379,1.473-1.847,2.752-1.999c1.402-0.166,2.838-0.136,4.246-0.092	c3.098,0.096,6.192,0.391,9.286,0.063C18.987,13.295,18.994,12.294,18.354,12.362z"/><path fill="#010101" d="M11.793,35.543c0.119,1.787-0.059,3.581,0.155,5.363c0.211,1.759,1.063,3.04,2.732,3.697	c1.714,0.674,3.724,0.683,5.538,0.71c2.185,0.032,4.368-0.105,6.548-0.24c2.182-0.136,4.366-0.273,6.553-0.242	c2.229,0.031,4.433,0.366,6.659,0.445c1.718,0.061,3.474-0.12,4.567-1.607c0.933-1.27,1.13-2.934,1.255-4.459	c0.333-4.091,0.089-8.189,0.173-12.286c0.091-4.441,0.373-8.869,0.251-13.314c-0.06-2.194-0.202-4.386-0.474-6.564	c-0.107-0.856-0.168-1.796-0.63-2.55c-0.415-0.676-1.116-1.065-1.885-1.194c-0.822-0.137-1.648-0.024-2.469,0.054	c-1.08,0.102-2.164,0.155-3.248,0.169c-2.172,0.028-4.343-0.095-6.508-0.264c-4.319-0.336-8.65-0.882-12.99-0.739	c-1.012,0.033-2.032,0.121-3.021,0.347c-0.82,0.187-1.821,0.451-2.45,1.045c-0.64,0.604-0.669,1.488-0.726,2.311	c-0.076,1.085-0.109,2.174-0.1,3.262c0.009,1.088,0.064,2.175,0.156,3.26c0.054,0.637,1.054,0.642,1,0	c-0.169-2.009-0.204-4.026-0.087-6.039c0.054-0.935-0.032-1.913,0.932-2.373c0.91-0.434,1.956-0.628,2.952-0.729	c3.939-0.398,7.996,0.111,11.921,0.452C32.52,4.4,36.47,4.721,40.405,4.389c1.575-0.133,3.67-0.62,4.149,1.402	c0.455,1.92,0.5,4.023,0.599,5.988c0.2,3.992,0.085,7.991-0.069,11.982c-0.148,3.828-0.046,7.646-0.102,11.474	c-0.026,1.763-0.047,3.573-0.333,5.316c-0.246,1.504-0.813,3.122-2.433,3.576c-0.872,0.244-1.83,0.176-2.723,0.128	c-1.051-0.056-2.097-0.17-3.145-0.262c-2.019-0.177-4.037-0.194-6.061-0.113c-4.407,0.177-8.864,0.77-13.268,0.246	c-1.876-0.223-3.654-0.871-4.026-2.932c-0.335-1.858-0.074-3.776-0.199-5.65C12.751,34.905,11.751,34.9,11.793,35.543L11.793,35.543	z"/><path fill="#010101" d="M28.939,3.823c1.322,10.521,0.288,21.128-0.054,31.675c-0.097,2.974-0.137,5.95-0.058,8.925	c0.017,0.642,1.017,0.645,1,0c-0.281-10.585,0.97-21.143,0.737-31.728c-0.066-2.966-0.254-5.928-0.624-8.872	C29.859,3.193,28.858,3.185,28.939,3.823L28.939,3.823z"/><path fill="#010101" d="M22.993,14.082c7.515,0.002,15.031,0.217,22.545,0c0.642-0.019,0.645-1.019,0-1	c-7.513,0.217-15.03,0.002-22.545,0C22.35,13.081,22.349,14.081,22.993,14.082L22.993,14.082z"/><path fill="#010101" d="M23.679,24.34c7.339,0.013,14.671-0.329,21.943-1.358c0.635-0.09,0.365-1.054-0.266-0.964	c-7.18,1.017-14.43,1.335-21.677,1.323C23.035,23.339,23.034,24.339,23.679,24.34L23.679,24.34z"/><path fill="#010101" d="M23.679,34.054c7.259-0.518,14.549-0.333,21.81,0.056c0.643,0.034,0.641-0.966,0-1	c-7.261-0.388-14.551-0.574-21.81-0.056C23.041,33.1,23.036,34.1,23.679,34.054L23.679,34.054z"/><path fill="#d6e5e5" d="M18.529,30.635c-0.562-1.803-1.927-3.694-3.041-5.219c-0.245-0.336-0.486-0.7-0.53-1.114 c-0.056-0.517,0.201-1.012,0.456-1.466c1.017-1.816,1.914-3.587,3.086-5.306c-0.961-0.059-1.675-0.278-2.524-0.233 c-0.286,0.015-0.589,0.036-0.82,0.205c-0.167,0.122-0.275,0.306-0.379,0.485c-0.621,1.072-1.242,2.144-1.863,3.217 c-0.603-1.127-1.206-2.254-1.809-3.38c-0.081-0.15-0.166-0.306-0.305-0.405c-0.21-0.15-0.492-0.137-0.75-0.118 c-0.829,0.063-2.622,0.212-3.451,0.274c1.286,1.938,3.149,4.086,4.043,6.234c0.058,0.138,0.115,0.283,0.109,0.432 c-0.008,0.207-0.137,0.388-0.26,0.556c-1.327,1.802-2.654,3.604-3.981,5.406c0.168,0.264,2.843,0.385,3.923,0.232 c0.731-1.24,1.628-3.193,2.359-4.432c0.735,1.554,1.536,2.777,2.401,4.262c0.065,0.111,0.134,0.226,0.245,0.291 c0.12,0.07,0.268,0.067,0.407,0.061C16.745,30.577,17.642,30.783,18.529,30.635z"/><path fill="#010101" d="M19.012,30.502c-0.351-1.073-0.88-2.071-1.483-3.023c-0.316-0.499-0.651-0.985-0.994-1.466	c-0.316-0.444-0.72-0.883-0.955-1.377c-0.335-0.704,0.166-1.364,0.499-1.965c0.305-0.551,0.605-1.105,0.91-1.657	c0.609-1.101,1.239-2.188,1.944-3.231c0.228-0.338-0.082-0.726-0.432-0.752c-1.078-0.082-2.68-0.63-3.647,0.079	c-0.523,0.384-0.812,1.151-1.129,1.697c-0.414,0.715-0.828,1.43-1.242,2.144c0.288,0,0.576,0,0.863,0	c-0.452-0.845-0.905-1.69-1.357-2.535c-0.354-0.662-0.629-1.509-1.479-1.612c-0.616-0.075-1.302,0.062-1.917,0.111	C7.929,16.97,7.265,17.024,6.6,17.075c-0.351,0.027-0.659,0.413-0.432,0.752c1.264,1.887,2.792,3.629,3.793,5.682	c0.14,0.288,0.318,0.541,0.22,0.863c-0.078,0.256-0.404,0.557-0.563,0.773c-0.393,0.534-0.786,1.068-1.18,1.602	c-0.786,1.068-1.573,2.136-2.359,3.204c-0.133,0.181-0.062,0.456,0.078,0.606c0.344,0.368,1.081,0.352,1.538,0.389	c0.796,0.066,1.61,0.089,2.408,0.024c0.4-0.033,0.629-0.069,0.848-0.429c0.262-0.432,0.488-0.89,0.72-1.338	c0.509-0.987,0.995-1.988,1.554-2.948c-0.288,0-0.576,0-0.863,0c0.688,1.436,1.517,2.801,2.342,4.162	c0.414,0.684,0.841,0.681,1.592,0.698c0.8,0.018,1.568,0.111,2.367,0.003c0.635-0.085,0.364-1.049-0.266-0.964	c-0.661,0.089-1.327-0.01-1.989-0.035c-0.333-0.013-0.609,0.053-0.841-0.207c-0.21-0.236-0.359-0.607-0.521-0.879	c-0.643-1.076-1.279-2.152-1.821-3.283c-0.166-0.346-0.686-0.305-0.863,0c-0.843,1.447-1.516,2.985-2.359,4.432	c0.144-0.083,0.288-0.165,0.432-0.248c-0.686,0.088-1.387,0.079-2.076,0.051c-0.332-0.014-0.665-0.032-0.995-0.072	c-0.13-0.016-0.274-0.061-0.403-0.065c-0.086-0.002-0.188-0.1-0.095,0c0.026,0.202,0.052,0.404,0.078,0.606	c0.86-1.168,1.72-2.336,2.58-3.504c0.442-0.601,0.89-1.198,1.327-1.802c0.37-0.511,0.492-0.934,0.249-1.533	c-0.942-2.323-2.688-4.232-4.068-6.293c-0.144,0.251-0.288,0.502-0.432,0.752c1.089-0.083,2.178-0.18,3.268-0.26	c0.399-0.029,0.66-0.007,0.863,0.367c0.191,0.351,0.377,0.704,0.565,1.056c0.396,0.739,0.791,1.479,1.187,2.218	c0.179,0.334,0.68,0.316,0.863,0c0.331-0.572,0.662-1.144,0.994-1.716c0.299-0.516,0.56-1.118,0.923-1.59	c0.611-0.795,2.375-0.186,3.237-0.12c-0.144-0.251-0.288-0.502-0.432-0.752c-0.77,1.141-1.451,2.334-2.114,3.54	c-0.324,0.589-0.651,1.176-0.973,1.766c-0.291,0.533-0.567,1.094-0.524,1.718c0.075,1.083,1.133,2.08,1.716,2.935	c0.75,1.102,1.457,2.257,1.874,3.53C18.246,31.377,19.212,31.116,19.012,30.502z"/></svg>